<svg id="Layer_1" data-name="Layer 1" xmlns="http://www.w3.org/2000/svg" viewBox="0 0 1025.78 991.71"><defs><style>.cls-1,.cls-2{stroke:#000;stroke-miterlimit:10;}.cls-2{stroke-width:0.81px;}</style></defs><path class="cls-1" d="M931.71,204.6c-212.39,0-384.57,172.18-384.57,384.57S719.32,973.75,931.71,973.75s384.58-172.18,384.58-384.58S1144.11,204.6,931.71,204.6Zm0,656.51c-150.18,0-271.93-121.75-271.93-271.94S781.53,317.24,931.71,317.24,1203.65,439,1203.65,589.17,1081.9,861.11,931.71,861.11Z" transform="translate(-546.64 -204.1)"/><path class="cls-2" d="M1286.49,744.11H1402a10,10,0,0,1,10,10v500.47a10,10,0,0,1-10,10h-27a98.52,98.52,0,0,1-98.52-98.52V754.09a10,10,0,0,1,10-10Z" transform="translate(-863.08 1040.59) rotate(-45)"/></svg>